<?xml version="1.0" encoding="UTF-8"?>
<svg viewBox="0 0 1200 900" xmlns="http://www.w3.org/2000/svg">
  
  <!-- Title -->
  <text x="600" y="35" text-anchor="middle" font-size="28" font-weight="bold" fill="#1a1a1a">
    Deep Reactive Ion Etching (DRIE)
  </text>
  <text x="600" y="60" text-anchor="middle" font-size="14" fill="#666">
    Bosch Process - Alternating Etch &amp; Passivation Cycles
  </text>
  
  <!-- Process Overview Box -->
  <rect x="50" y="80" width="1100" height="70" fill="#e3f2fd" stroke="#1976d2" stroke-width="2" rx="6"/>
  <text x="70" y="105" font-size="14" font-weight="bold" fill="#1976d2">Process Parameters:</text>
  <text x="70" y="125" font-size="11" fill="#333">• Etch gas: SF₆ • Passivation: C₄F₈ • Cycle: 5-15s etch + 2-5s passivation</text>
  <text x="70" y="140" font-size="11" fill="#333">• Etch rate: 1-5 µm/min • Aspect ratio: 10:1 to 50:1 • Scallop size: 50-500 nm</text>
  
  <!-- Cycle 1: Initial State -->
  <g id="cycle1">
    <rect x="50" y="170" width="260" height="280" fill="#fff3e0" stroke="#f57c00" stroke-width="3" rx="6"/>
    <text x="180" y="200" text-anchor="middle" font-size="16" font-weight="bold" fill="#f57c00">
      Cycle 1: Etch (SF₆)
    </text>
    
    <!-- Mask -->
    <rect x="90" y="220" width="60" height="20" fill="#424242" stroke="#212121" stroke-width="2"/>
    <text x="120" y="234" text-anchor="middle" font-size="9" fill="white">Mask</text>
    <rect x="180" y="220" width="60" height="20" fill="#424242" stroke="#212121" stroke-width="2"/>
    
    <!-- SF6 ions -->
    <text x="120" y="255" text-anchor="middle" font-size="10" fill="#ff6f00" font-weight="bold">SF₆⁺</text>
    <path d="M 115,260 L 115,280" stroke="#ff6f00" stroke-width="2" marker-end="url(#arrow-orange)"/>
    <path d="M 125,260 L 125,280" stroke="#ff6f00" stroke-width="2" marker-end="url(#arrow-orange)"/>
    
    <text x="210" y="255" text-anchor="middle" font-size="10" fill="#ff6f00" font-weight="bold">SF₆⁺</text>
    <path d="M 205,260 L 205,280" stroke="#ff6f00" stroke-width="2" marker-end="url(#arrow-orange)"/>
    <path d="M 215,260 L 215,280" stroke="#ff6f00" stroke-width="2" marker-end="url(#arrow-orange)"/>
    
    <!-- Silicon substrate with vertical etch -->
    <path d="M 90,240 L 90,400 L 150,400 L 150,290 L 170,290 L 170,400 L 240,400 L 240,240" 
          fill="#8b7355" stroke="#333" stroke-width="2"/>
    <text x="180" y="350" text-anchor="middle" font-size="10" fill="white">Silicon</text>
    
    <!-- Annotations -->
    <text x="70" y="420" font-size="10" fill="#666">• Anisotropic etch</text>
    <text x="70" y="435" font-size="10" fill="#666">• High energy ions</text>
  </g>
  
  <!-- Arrow -->
  <path d="M 310,310 L 350,310" stroke="#666" stroke-width="3" marker-end="url(#arrow)"/>
  
  <!-- Cycle 2: Passivation -->
  <g id="cycle2">
    <rect x="350" y="170" width="260" height="280" fill="#e8f5e9" stroke="#388e3c" stroke-width="3" rx="6"/>
    <text x="480" y="200" text-anchor="middle" font-size="16" font-weight="bold" fill="#388e3c">
      Cycle 2: Passivation (C₄F₈)
    </text>
    
    <!-- Mask -->
    <rect x="390" y="220" width="60" height="20" fill="#424242" stroke="#212121" stroke-width="2"/>
    <rect x="480" y="220" width="60" height="20" fill="#424242" stroke="#212121" stroke-width="2"/>
    
    <!-- C4F8 molecules -->
    <circle cx="420" cy="255" r="3" fill="#66bb6a" opacity="0.7"/>
    <circle cx="435" cy="250" r="3" fill="#66bb6a" opacity="0.7"/>
    <circle cx="450" cy="258" r="3" fill="#66bb6a" opacity="0.7"/>
    <circle cx="510" cy="255" r="3" fill="#66bb6a" opacity="0.7"/>
    <circle cx="525" cy="252" r="3" fill="#66bb6a" opacity="0.7"/>
    <text x="480" y="275" text-anchor="middle" font-size="9" fill="#2e7d32">C₄F₈ polymer</text>
    
    <!-- Silicon with passivation layer -->
    <path d="M 390,240 L 390,400 L 450,400 L 450,290 L 470,290 L 470,400 L 540,400 L 540,240" 
          fill="#8b7355" stroke="#333" stroke-width="2"/>
    
    <!-- Passivation coating (green) -->
    <path d="M 390,240 L 390,400 L 450,400 L 450,290 L 470,290 L 470,400 L 540,400 L 540,240" 
          fill="none" stroke="#66bb6a" stroke-width="4"/>
    
    <text x="370" y="420" font-size="10" fill="#666">• Polymer coating</text>
    <text x="370" y="435" font-size="10" fill="#666">• Protects sidewalls</text>
  </g>
  
  <!-- Arrow -->
  <path d="M 610,310 L 650,310" stroke="#666" stroke-width="3" marker-end="url(#arrow)"/>
  
  <!-- Cycle 3: Next Etch -->
  <g id="cycle3">
    <rect x="650" y="170" width="260" height="280" fill="#fff3e0" stroke="#f57c00" stroke-width="3" rx="6"/>
    <text x="780" y="200" text-anchor="middle" font-size="16" font-weight="bold" fill="#f57c00">
      Cycle 3: Etch (SF₆)
    </text>
    
    <!-- Mask -->
    <rect x="690" y="220" width="60" height="20" fill="#424242" stroke="#212121" stroke-width="2"/>
    <rect x="780" y="220" width="60" height="20" fill="#424242" stroke="#212121" stroke-width="2"/>
    
    <!-- SF6 ions -->
    <path d="M 715,260 L 715,285" stroke="#ff6f00" stroke-width="2" marker-end="url(#arrow-orange)"/>
    <path d="M 725,260 L 725,285" stroke="#ff6f00" stroke-width="2" marker-end="url(#arrow-orange)"/>
    <path d="M 805,260 L 805,285" stroke="#ff6f00" stroke-width="2" marker-end="url(#arrow-orange)"/>
    <path d="M 815,260 L 815,285" stroke="#ff6f00" stroke-width="2" marker-end="url(#arrow-orange)"/>
    
    <!-- Silicon with scallops -->
    <path d="M 690,240 L 690,400 L 750,400 L 750,310 L 755,315 L 755,310 L 765,315 L 770,310 L 770,400 L 840,400 L 840,240" 
          fill="#8b7355" stroke="#333" stroke-width="2"/>
    
    <!-- Passivation remnants on sidewall -->
    <line x1="750" y1="295" x2="750" y2="310" stroke="#66bb6a" stroke-width="3"/>
    <line x1="770" y1="295" x2="770" y2="310" stroke="#66bb6a" stroke-width="3"/>
    
    <text x="670" y="420" font-size="10" fill="#666">• Removes bottom</text>
    <text x="670" y="435" font-size="10" fill="#666">• Sidewalls protected</text>
  </g>
  
  <!-- Arrow -->
  <path d="M 910,310 L 950,310" stroke="#666" stroke-width="3" marker-end="url(#arrow)"/>
  
  <!-- Final Result -->
  <g id="final">
    <rect x="950" y="170" width="200" height="280" fill="#e8eaf6" stroke="#3f51b5" stroke-width="3" rx="6"/>
    <text x="1050" y="200" text-anchor="middle" font-size="16" font-weight="bold" fill="#3f51b5">
      Final Profile
    </text>
    
    <!-- Mask -->
    <rect x="980" y="220" width="50" height="20" fill="#424242" stroke="#212121" stroke-width="2"/>
    <rect x="1060" y="220" width="50" height="20" fill="#424242" stroke="#212121" stroke-width="2"/>
    
    <!-- Deep trench with scallops -->
    <path d="M 980,240 L 980,400 L 1030,400 
             L 1030,380 L 1032,378 L 1030,375 L 1032,373 L 1030,370 
             L 1032,368 L 1030,365 L 1032,363 L 1030,360 
             L 1032,358 L 1030,355 L 1032,353 L 1030,350 
             L 1032,348 L 1030,345 L 1032,343 L 1030,340 
             L 1032,338 L 1030,335 L 1032,333 L 1030,330 
             L 1032,328 L 1030,325 L 1032,323 L 1030,320 
             L 1032,318 L 1030,315 L 1032,313 L 1030,310 
             L 1032,308 L 1030,305 L 1032,303 L 1030,300
             L 1060,300
             L 1058,303 L 1060,305 L 1058,308 L 1060,310
             L 1058,313 L 1060,315 L 1058,318 L 1060,320
             L 1058,323 L 1060,325 L 1058,328 L 1060,330
             L 1058,333 L 1060,335 L 1058,338 L 1060,340
             L 1058,343 L 1060,345 L 1058,348 L 1060,350
             L 1058,353 L 1060,355 L 1058,358 L 1060,360
             L 1058,363 L 1060,365 L 1058,368 L 1060,370
             L 1058,373 L 1060,375 L 1058,378 L 1060,380
             L 1060,400 L 1110,400 L 1110,240" 
          fill="#8b7355" stroke="#333" stroke-width="2"/>
    
    <!-- Depth measurement -->
    <line x1="1120" y1="240" x2="1120" y2="400" stroke="#3f51b5" stroke-width="2"/>
    <line x1="1115" y1="240" x2="1125" y2="240" stroke="#3f51b5" stroke-width="2"/>
    <line x1="1115" y1="400" x2="1125" y2="400" stroke="#3f51b5" stroke-width="2"/>
    <text x="1135" y="325" font-size="10" fill="#3f51b5" font-weight="bold">Depth</text>
    <text x="1135" y="340" font-size="9" fill="#3f51b5">50-500</text>
    <text x="1135" y="353" font-size="9" fill="#3f51b5">µm</text>
    
    <!-- Width measurement -->
    <line x1="1030" y1="410" x2="1060" y2="410" stroke="#3f51b5" stroke-width="2"/>
    <line x1="1030" y1="405" x2="1030" y2="415" stroke="#3f51b5" stroke-width="2"/>
    <line x1="1060" y1="405" x2="1060" y2="415" stroke="#3f51b5" stroke-width="2"/>
    <text x="1045" y="428" text-anchor="middle" font-size="9" fill="#3f51b5">Width</text>
    <text x="1045" y="440" text-anchor="middle" font-size="8" fill="#3f51b5">2-20 µm</text>
  </g>
  
  <!-- Comparison: Cryogenic DRIE -->
  <rect x="50" y="480" width="540" height="200" fill="#e1f5fe" stroke="#0288d1" stroke-width="2" rx="6"/>
  <text x="320" y="510" text-anchor="middle" font-size="18" font-weight="bold" fill="#0288d1">
    Cryogenic DRIE (Alternative)
  </text>
  
  <!-- Cryo process illustration -->
  <rect x="100" y="530" width="50" height="20" fill="#424242" stroke="#212121" stroke-width="2"/>
  <rect x="180" y="530" width="50" height="20" fill="#424242" stroke="#212121" stroke-width="2"/>
  
  <!-- Very smooth sidewalls -->
  <path d="M 100,550 L 100,650 L 150,650 L 150,600 L 180,600 L 180,650 L 230,650 L 230,550" 
        fill="#8b7355" stroke="#333" stroke-width="2"/>
  
  <!-- Ice layer (cyan) -->
  <line x1="150" y1="595" x2="150" y2="650" stroke="#00bcd4" stroke-width="3"/>
  <line x1="180" y1="595" x2="180" y2="650" stroke="#00bcd4" stroke-width="3"/>
  
  <text x="165" y="625" text-anchor="middle" font-size="9" fill="#00bcd4" font-weight="bold">Ice</text>
  
  <!-- Parameters -->
  <text x="270" y="550" font-size="12" fill="#333" font-weight="bold">Process:</text>
  <text x="270" y="570" font-size="11" fill="#666">• Temperature: -110 to -140°C</text>
  <text x="270" y="588" font-size="11" fill="#666">• Gas: SF₆ + O₂</text>
  <text x="270" y="606" font-size="11" fill="#666">• Continuous process (no cycles)</text>
  <text x="270" y="624" font-size="11" fill="#666">• Smooth sidewalls (no scallops)</text>
  <text x="270" y="642" font-size="11" fill="#666">• Ice passivation layer</text>
  <text x="270" y="660" font-size="11" fill="#666">• Higher etch rates possible</text>
  
  <!-- Applications -->
  <rect x="620" y="480" width="530" height="200" fill="#f3e5f5" stroke="#7b1fa2" stroke-width="2" rx="6"/>
  <text x="885" y="510" text-anchor="middle" font-size="18" font-weight="bold" fill="#7b1fa2">
    Applications &amp; Metrics
  </text>
  
  <text x="640" y="540" font-size="12" fill="#333" font-weight="bold">Common Uses:</text>
  <text x="640" y="560" font-size="11" fill="#666">• MEMS sensors (accelerometers, gyros)</text>
  <text x="640" y="578" font-size="11" fill="#666">• Through-silicon vias (TSVs)</text>
  <text x="640" y="596" font-size="11" fill="#666">• Microfluidic channels</text>
  <text x="640" y="614" font-size="11" fill="#666">• Optical MEMS (gratings, mirrors)</text>
  
  <text x="640" y="640" font-size="12" fill="#333" font-weight="bold">Key Metrics:</text>
  <text x="640" y="660" font-size="11" fill="#666">• Aspect ratio: Depth / Width (up to 50:1)</text>
  
  <!-- Aspect ratio comparison -->
  <rect x="850" y="535" width="8" height="80" fill="#8b7355" stroke="#333" stroke-width="1"/>
  <text x="865" y="575" font-size="10" fill="#666">20:1</text>
  <rect x="900" y="555" width="12" height="60" fill="#8b7355" stroke="#333" stroke-width="1"/>
  <text x="920" y="585" font-size="10" fill="#666">5:1</text>
  <rect x="960" y="545" width="20" height="70" fill="#8b7355" stroke="#333" stroke-width="1"/>
  <text x="990" y="580" font-size="10" fill="#666">3.5:1</text>
  
  <text x="890" y="630" text-anchor="middle" font-size="9" fill="#666">High AR</text>
  
  <!-- Legend -->
  <rect x="50" y="710" width="1100" height="60" fill="#fafafa" stroke="#333" stroke-width="2" rx="5"/>
  <text x="70" y="735" font-size="12" font-weight="bold" fill="#333">Materials &amp; Gases:</text>
  
  <rect x="200" y="725" width="25" height="12" fill="#8b7355" stroke="#333" stroke-width="1"/>
  <text x="230" y="734" font-size="10" fill="#333">Silicon substrate</text>
  
  <rect x="340" y="725" width="25" height="12" fill="#424242" stroke="#333" stroke-width="1"/>
  <text x="370" y="734" font-size="10" fill="#333">Mask (SiO₂, photoresist)</text>
  
  <line x1="520" y1="731" x2="545" y2="731" stroke="#66bb6a" stroke-width="4"/>
  <text x="550" y="734" font-size="10" fill="#333">C₄F₈ passivation</text>
  
  <line x1="690" y1="731" x2="715" y2="731" stroke="#00bcd4" stroke-width="4"/>
  <text x="720" y="734" font-size="10" fill="#333">Ice layer (cryo)</text>
  
  <text x="70" y="755" font-size="10" fill="#666">
    SF₆ = Sulfur hexafluoride (etch) • C₄F₈ = Octafluorocyclobutane (passivation) • O₂ = Oxygen (sidewall attack)
  </text>
  
  <!-- Advantages box -->
  <rect x="50" y="790" width="550" height="90" fill="#e8f5e9" stroke="#388e3c" stroke-width="2" rx="5"/>
  <text x="70" y="815" font-size="13" font-weight="bold" fill="#388e3c">✓ Advantages:</text>
  <text x="70" y="835" font-size="10" fill="#333">• High aspect ratios (10:1 to 50:1)</text>
  <text x="70" y="850" font-size="10" fill="#333">• Anisotropic (vertical walls)</text>
  <text x="70" y="865" font-size="10" fill="#333">• Fast etch rates (1-5 µm/min)</text>
  
  <text x="330" y="835" font-size="10" fill="#333">• CMOS compatible</text>
  <text x="330" y="850" font-size="10" fill="#333">• Wafer-scale processing</text>
  <text x="330" y="865" font-size="10" fill="#333">• Reproducible &amp; controllable</text>
  
  <!-- Challenges box -->
  <rect x="620" y="790" width="530" height="90" fill="#ffebee" stroke="#c62828" stroke-width="2" rx="5"/>
  <text x="640" y="815" font-size="13" font-weight="bold" fill="#c62828">⚠ Challenges:</text>
  <text x="640" y="835" font-size="10" fill="#333">• Scalloping (surface roughness)</text>
  <text x="640" y="850" font-size="10" fill="#333">• Aspect ratio dependent etching (ARDE)</text>
  <text x="640" y="865" font-size="10" fill="#333">• Notching (charging effects)</text>
  
  <text x="900" y="835" font-size="10" fill="#333">• Mask erosion</text>
  <text x="900" y="850" font-size="10" fill="#333">• Microloading effects</text>
  <text x="900" y="865" font-size="10" fill="#333">• Expensive equipment</text>
  
  <!-- Definitions -->
  <defs>
    <marker id="arrow" markerWidth="10" markerHeight="10" refX="9" refY="3" orient="auto">
      <polygon points="0 0, 10 3, 0 6" fill="#666"/>
    </marker>
    <marker id="arrow-orange" markerWidth="8" markerHeight="8" refX="7" refY="3" orient="auto">
      <polygon points="0 0, 8 3, 0 6" fill="#ff6f00"/>
    </marker>
  </defs>
  
</svg>