<?xml version="1.0" encoding="UTF-8"?>
<svg viewBox="0 0 1400 1000" xmlns="http://www.w3.org/2000/svg">
  
  <!-- Style Definitions -->
  <style>
    .section-title { font-size: 22px; font-weight: bold; }
    .subtitle { font-size: 14px; fill: #666; }
    .parameter-label { font-size: 11px; font-weight: bold; }
    .parameter-value { font-size: 10px; fill: #444; }
    .process-step { font-size: 12px; font-weight: bold; }
    .heat-animation { animation: heat-wave 2s infinite; }
    .highlight-on-hover { transition: all 0.3s; cursor: pointer; }
    
    @keyframes heat-wave {
      0%, 100% { opacity: 1; }
      50% { opacity: 0.5; }
    }
    
    .anodic-theme { fill: #1976d2; stroke: #1976d2; }
    .fusion-theme { fill: #f57c00; stroke: #f57c00; }
    .eutectic-theme { fill: #388e3c; stroke: #388e3c; }
  </style>
  
  <!-- Title Section -->
  <text x="700" y="35" text-anchor="middle" font-size="28" font-weight="bold" fill="#1a1a1a">
    Wafer Bonding Technologies
  </text>
  <text x="700" y="60" text-anchor="middle" font-size="14" fill="#666">
    Three Major Bonding Methods for MEMS &amp; 3D Integration
  </text>
  
  <!-- Section Numbers -->
  <circle cx="100" cy="105" r="15" fill="#1976d2"/>
  <text x="100" y="110" text-anchor="middle" font-size="10" fill="white">1</text>
  
  <circle cx="550" cy="105" r="15" fill="#f57c00"/>
  <text x="550" y="110" text-anchor="middle" font-size="10" fill="white">2</text>
  
  <circle cx="1000" cy="105" r="15" fill="#388e3c"/>
  <text x="1000" y="110" text-anchor="middle" font-size="10" fill="white">3</text>
  
  <!-- Anodic Bonding -->
  <g id="anodic" class="highlight-on-hover" onmouseover="document.getElementById('anodic-details').style.opacity='1'" onmouseout="document.getElementById('anodic-details').style.opacity='0'">
    <rect x="50" y="90" width="400" height="400" fill="#e3f2fd" stroke="#1976d2" stroke-width="3" rx="8"/>
    <text x="250" y="120" text-anchor="middle" font-size="20" font-weight="bold" class="anodic-theme">
      Anodic Bonding
    </text>
    <text x="250" y="140" text-anchor="middle" font-size="12" fill="#666">
      (Field-Assisted Silicon-Glass Bonding)
    </text>
    
    <!-- Before bonding -->
    <text x="70" y="170" font-size="12" fill="#333" font-weight="bold">Before Bonding:</text>
    <rect x="150" y="180" width="200" height="25" fill="#8b7355" stroke="#333" stroke-width="2"/>
    <text x="250" y="197" text-anchor="middle" font-size="10" fill="white">Silicon Wafer</text>
    
    <text x="250" y="220" text-anchor="middle" font-size="14" fill="#999">Gap (Air/Vacuum)</text>
    
    <rect x="150" y="235" width="200" height="25" fill="#b0e0e6" stroke="#333" stroke-width="2"/>
    <text x="250" y="252" text-anchor="middle" font-size="10" fill="#333">Glass (Pyrex 7740)</text>
    
    <!-- During bonding -->
    <text x="70" y="285" font-size="12" fill="#333" font-weight="bold">During Bonding (300-450°C):</text>
    
    <!-- Electric field lines -->
    <path d="M 140,315 L 250,340" stroke="#1e88e5" stroke-width="1" stroke-dasharray="2,2" opacity="0.6"/>
    <path d="M 140,315 L 300,340" stroke="#1e88e5" stroke-width="1" stroke-dasharray="2,2" opacity="0.6"/>
    
    <!-- Cathode -->
    <rect x="120" y="295" width="40" height="8" fill="#757575" stroke="#333" stroke-width="1"/>
    <text x="140" y="302" text-anchor="middle" font-size="8" fill="white">-</text>
    <line x1="140" y1="303" x2="140" y2="315" stroke="#333" stroke-width="2"/>
    
    <!-- Silicon (negative) -->
    <rect x="150" y="315" width="200" height="25" fill="#8b7355" stroke="#333" stroke-width="2"/>
    <text x="250" y="332" text-anchor="middle" font-size="10" fill="white">Si (Cathode, -)</text>
    
    <!-- Bond interface -->
    <line x1="150" y1="340" x2="350" y2="340" stroke="#ff6f00" stroke-width="3"/>
    
    <!-- Glass with mobile ions -->
    <rect x="150" y="340" width="200" height="25" fill="#b0e0e6" stroke="#333" stroke-width="2"/>
    <text x="250" y="357" text-anchor="middle" font-size="10" fill="#333">Glass (Anode, +)</text>
    
    <!-- Anode -->
    <rect x="120" y="365" width="40" height="8" fill="#757575" stroke="#333" stroke-width="1"/>
    <text x="140" y="372" text-anchor="middle" font-size="8" fill="white">+</text>
    <line x1="140" y1="365" x2="140" y2="353" stroke="#333" stroke-width="2"/>
    
    <!-- Heat waves -->
    <g class="heat-animation">
      <circle cx="370" cy="320" r="15" fill="none" stroke="#ff5252" stroke-width="2" stroke-dasharray="2,2" opacity="0.7"/>
      <circle cx="370" cy="320" r="25" fill="none" stroke="#ff5252" stroke-width="1" stroke-dasharray="1,3" opacity="0.4"/>
      <path d="M 370,320 Q 370,328 373,332 T 379,340" stroke="#ff5252" stroke-width="2" fill="none"/>
      <path d="M 385,320 Q 385,328 388,332 T 394,340" stroke="#ff5252" stroke-width="2" fill="none"/>
      <path d="M 400,320 Q 400,328 403,332 T 409,340" stroke="#ff5252" stroke-width="2" fill="none"/>
    </g>
    
    <!-- Ion migration illustration -->
    <circle cx="220" cy="352" r="3" fill="#ff6f00"/>
    <text x="225" y="356" font-size="8" fill="#ff6f00">Na⁺</text>
    <path d="M 220,352 L 220,345" stroke="#ff6f00" stroke-width="1" marker-end="url(#arrow-orange)"/>
    
    <circle cx="260" cy="352" r="3" fill="#ff6f00"/>
    <text x="265" y="356" font-size="8" fill="#ff6f00">Na⁺</text>
    <path d="M 260,352 L 260,345" stroke="#ff6f00" stroke-width="1" marker-end="url(#arrow-orange)"/>
    
    <circle cx="300" cy="352" r="3" fill="#ff6f00"/>
    <text x="305" y="356" font-size="8" fill="#ff6f00">Na⁺</text>
    <path d="M 300,352 L 300,345" stroke="#ff6f00" stroke-width="1" marker-end="url(#arrow-orange)"/>
    
    <!-- Process parameters -->
    <rect x="60" y="390" width="380" height="70" fill="white" stroke="#1976d2" stroke-width="1" rx="4"/>
    <text x="70" y="410" font-size="11" fill="#333" font-weight="bold">Process Parameters:</text>
    <text x="70" y="427" font-size="10" fill="#666">• Temperature: 300-450°C</text>
    <text x="70" y="442" font-size="10" fill="#666">• Voltage: 200-1000 V DC</text>
    <text x="70" y="457" font-size="10" fill="#666">• Time: 10-30 minutes</text>
    
    <text x="240" y="427" font-size="10" fill="#666">• Pressure: Contact pressure</text>
    <text x="240" y="442" font-size="10" fill="#666">• Bond strength: 10-20 MPa</text>
    <text x="240" y="457" font-size="10" fill="#666">• Hermetic seal: Excellent</text>
    
    <!-- Detailed info (hidden by default) -->
    <g id="anodic-details" opacity="0" style="transition: opacity 0.3s;">
      <rect x="10" y="320" width="380" height="140" fill="white" stroke="#1976d2" rx="4" opacity="0.9"/>
      <text x="20" y="340" font-size="10" fill="#333">• Mechanism: Electrostatic field + ion migration</text>
      <text x="20" y="355" font-size="10" fill="#333">• Mobile ions: Na⁺, K⁺ in glass</text>
      <text x="20" y="370" font-size="10" fill="#333">• Applications: Pressure sensors, microfluidics</text>
      <text x="20" y="385" font-size="10" fill="#333">• Advantages: Low temp, hermetic seal</text>
      <text x="20" y="400" font-size="10" fill="#333">• Limitations: Requires conductive glass</text>
    </g>
  </g>
  
  <!-- Process Flow Arrow -->
  <path d="M 250,240 L 250,280" stroke="#999" stroke-width="2" fill="none" marker-end="url(#arrow)"/>
  <text x="250" y="265" text-anchor="middle" font-size="10" fill="#666">Apply Heat + Voltage</text>
  
  <!-- Fusion Bonding -->
  <g id="fusion" class="highlight-on-hover" onmouseover="document.getElementById('fusion-details').style.opacity='1'" onmouseout="document.getElementById('fusion-details').style.opacity='0'">
    <rect x="500" y="90" width="400" height="400" fill="#fff3e0" stroke="#f57c00" stroke-width="3" rx="8"/>
    <text x="700" y="120" text-anchor="middle" font-size="20" font-weight="bold" class="fusion-theme">
      Fusion Bonding
    </text>
    <text x="700" y="140" text-anchor="middle" font-size="12" fill="#666">
      (Direct Silicon-Silicon Bonding)
    </text>
    
    <!-- Before bonding -->
    <text x="520" y="170" font-size="12" fill="#333" font-weight="bold">Surface Preparation (Cleanroom):</text>
    <rect x="600" y="180" width="200" height="25" fill="#8b7355" stroke="#333" stroke-width="2"/>
    <rect x="600" y="177" width="200" height="3" fill="#64b5f6" stroke="none"/>
    <text x="700" y="197" text-anchor="middle" font-size="10" fill="white">Si + Native Oxide (~2nm)</text>
    
    <!-- Hydrophilic surface with water molecules -->
    <g transform="translate(600,215)">
      <!-- Water molecules -->
      <g transform="translate(30,0)">
        <circle r="2" fill="#4fc3f7"/>
        <line x1="-3" y1="0" x2="3" y2="0" stroke="#4fc3f7" stroke-width="1"/>
        <circle r="2" cx="0" cy="-4" fill="#4fc3f7"/>
      </g>
      <g transform="translate(70,0)">
        <circle r="2" fill="#4fc3f7"/>
        <line x1="-3" y1="0" x2="3" y2="0" stroke="#4fc3f7" stroke-width="1"/>
        <circle r="2" cx="0" cy="-4" fill="#4fc3f7"/>
      </g>
      <g transform="translate(110,0)">
        <circle r="2" fill="#4fc3f7"/>
        <line x1="-3" y1="0" x2="3" y2="0" stroke="#4fc3f7" stroke-width="1"/>
        <circle r="2" cx="0" cy="-4" fill="#4fc3f7"/>
      </g>
      <g transform="translate(150,0)">
        <circle r="2" fill="#4fc3f7"/>
        <line x1="-3" y1="0" x2="3" y2="0" stroke="#4fc3f7" stroke-width="1"/>
        <circle r="2" cx="0" cy="-4" fill="#4fc3f7"/>
      </g>
    </g>
    <text x="700" y="235" text-anchor="middle" font-size="9" fill="#0277bd">OH groups (hydrophilic surface)</text>
    
    <!-- Contact process -->
    <text x="700" y="255" text-anchor="middle" font-size="12" fill="#999">↓ Contact at Room Temperature</text>
    
    <!-- Second wafer -->
    <g transform="translate(600,270)">
      <g transform="translate(30,0)">
        <circle r="2" fill="#4fc3f7"/>
        <line x1="-3" y1="0" x2="3" y2="0" stroke="#4fc3f7" stroke-width="1"/>
        <circle r="2" cx="0" cy="-4" fill="#4fc3f7"/>
      </g>
      <g transform="translate(70,0)">
        <circle r="2" fill="#4fc3f7"/>
        <line x1="-3" y1="0" x2="3" y2="0" stroke="#4fc3f7" stroke-width="1"/>
        <circle r="2" cx="0" cy="-4" fill="#4fc3f7"/>
      </g>
      <g transform="translate(110,0)">
        <circle r="2" fill="#4fc3f7"/>
        <line x1="-3" y1="0" x2="3" y2="0" stroke="#4fc3f7" stroke-width="1"/>
        <circle r="2" cx="0" cy="-4" fill="#4fc3f7"/>
      </g>
      <g transform="translate(150,0)">
        <circle r="2" fill="#4fc3f7"/>
        <line x1="-3" y1="0" x2="3" y2="0" stroke="#4fc3f7" stroke-width="1"/>
        <circle r="2" cx="0" cy="-4" fill="#4fc3f7"/>
      </g>
    </g>
    
    <rect x="600" y="280" width="200" height="3" fill="#64b5f6" stroke="none"/>
    <rect x="600" y="283" width="200" height="25" fill="#8b7355" stroke="#333" stroke-width="2"/>
    <text x="700" y="300" text-anchor="middle" font-size="10" fill="white">Si + Native Oxide</text>
    
    <!-- Annealing -->
    <text x="520" y="330" font-size="12" fill="#333" font-weight="bold">After Annealing (800-1200°C):</text>
    
    <!-- Silicon wafer -->
    <rect x="600" y="340" width="200" height="25" fill="#8b7355" stroke="#333" stroke-width="2"/>
    <text x="700" y="357" text-anchor="middle" font-size="10" fill="white">Silicon</text>
    
    <!-- Strong bond line with animation -->
    <path d="M 600,365 Q 650,360 700,365 T 800,365" stroke="#4caf50" stroke-width="4" fill="none">
      <animate attributeName="stroke-dasharray" from="0,1000" to="1000,0" dur="2s" begin="1s" fill="freeze"/>
    </path>
    
    <!-- Si-O-Si bond microstructure -->
    <g transform="translate(700,365)">
      <circle cx="0" cy="0" r="20" fill="none" stroke="#78909c" stroke-width="1" opacity="0.3"/>
      <circle cx="-10" cy="5" r="3" fill="#8d6e63"/>
      <circle cx="10" cy="-5" r="3" fill="#8d6e63"/>
      <line x1="-8" y1="4" x2="8" y2="-4" stroke="#5d4037" stroke-width="2"/>
      <circle cx="0" cy="0" r="4" fill="#ffa726"/>
    </g>
    
    <text x="820" y="368" font-size="9" fill="#2e7d32" font-weight="bold">Si-O-Si Covalent Bonds</text>
    
    <!-- Second silicon wafer -->
    <rect x="600" y="365" width="200" height="25" fill="#8b7355" stroke="#333" stroke-width="2"/>
    <text x="700" y="382" text-anchor="middle" font-size="10" fill="white">Silicon</text>
    
    <!-- Process parameters -->
    <rect x="510" y="405" width="380" height="65" fill="white" stroke="#f57c00" stroke-width="1" rx="4"/>
    <text x="520" y="425" font-size="11" fill="#333" font-weight="bold">Process Parameters:</text>
    <text x="520" y="442" font-size="10" fill="#666">• Pre-bond: RT, Class 100 cleanroom</text>
    <text x="520" y="457" font-size="10" fill="#666">• Anneal: 800-1200°C, 1-4 hours</text>
    
    <text x="700" y="442" font-size="10" fill="#666">• Bond strength: 20-30 MPa</text>
    <text x="700" y="457" font-size="10" fill="#666">• No voltage required</text>
    
    <!-- Detailed info (hidden by default) -->
    <g id="fusion-details" opacity="0" style="transition: opacity 0.3s;">
      <rect x="510" y="320" width="380" height="140" fill="white" stroke="#f57c00" rx="4" opacity="0.9"/>
      <text x="520" y="340" font-size="10" fill="#333">• Mechanism: Van der Waals → covalent bonds</text>
      <text x="520" y="355" font-size="10" fill="#333">• Surface roughness: &lt;1 nm required</text>
      <text x="520" y="370" font-size="10" fill="#333">• Applications: SOI wafers, 3D-IC stacking</text>
      <text x="520" y="385" font-size="10" fill="#333">• Advantages: Strongest bond, CMOS compatible</text>
      <text x="520" y="400" font-size="10" fill="#333">• Limitations: High temperature required</text>
    </g>
  </g>
  
  <!-- Process Flow Arrow -->
  <g transform="translate(700,0)">
    <path d="M 0,255 L 0,265" stroke="#999" stroke-width="2" fill="none" marker-end="url(#arrow)"/>
    <text x="0" y="260" text-anchor="middle" font-size="9" fill="#666">Contact</text>
    <path d="M 0,330 L 0,340" stroke="#999" stroke-width="2" fill="none" marker-end="url(#arrow)"/>
    <text x="0" y="335" text-anchor="middle" font-size="9" fill="#666">Anneal</text>
  </g>
  
  <!-- Eutectic Bonding -->
  <g id="eutectic" class="highlight-on-hover" onmouseover="document.getElementById('eutectic-details').style.opacity='1'" onmouseout="document.getElementById('eutectic-details').style.opacity='0'">
    <rect x="950" y="90" width="400" height="400" fill="#e8f5e9" stroke="#388e3c" stroke-width="3" rx="8"/>
    <text x="1150" y="120" text-anchor="middle" font-size="20" font-weight="bold" class="eutectic-theme">
      Eutectic Bonding
    </text>
    <text x="1150" y="140" text-anchor="middle" font-size="12" fill="#666">
      (Metal Interlayer Bonding)
    </text>
    
    <!-- Before bonding -->
    <text x="970" y="170" font-size="12" fill="#333" font-weight="bold">Before Bonding:</text>
    <rect x="1050" y="180" width="200" height="25" fill="#8b7355" stroke="#333" stroke-width="2"/>
    <text x="1150" y="197" text-anchor="middle" font-size="10" fill="white">Silicon</text>
    
    <!-- Gold layer -->
    <rect x="1050" y="205" width="200" height="8" fill="#ffd54f" stroke="#f57f17" stroke-width="2"/>
    <text x="1150" y="213" text-anchor="middle" font-size="8" fill="#333" font-weight="bold">Au (0.5-2 μm)</text>
    
    <text x="1150" y="230" text-anchor="middle" font-size="14" fill="#999">Gap</text>
    
    <!-- Gold layer -->
    <rect x="1050" y="240" width="200" height="8" fill="#ffd54f" stroke="#f57f17" stroke-width="2"/>
    <text x="1150" y="248" text-anchor="middle" font-size="8" fill="#333" font-weight="bold">Au (0.5-2 μm)</text>
    
    <rect x="1050" y="248" width="200" height="25" fill="#8b7355" stroke="#333" stroke-width="2"/>
    <text x="1150" y="265" text-anchor="middle" font-size="10" fill="white">Silicon</text>
    
    <!-- During bonding (eutectic melt) -->
    <text x="970" y="295" font-size="12" fill="#333" font-weight="bold">During Bonding (Heating):</text>
    <rect x="1050" y="305" width="200" height="25" fill="#8b7355" stroke="#333" stroke-width="2"/>
    
    <!-- Liquid eutectic with wave effect -->
    <rect x="1050" y="330" width="200" height="15" fill="#ffab00" stroke="#ff6f00" stroke-width="2">
      <animate attributeName="height" values="15;17;15" dur="2s" repeatCount="indefinite"/>
    </rect>
    <text x="1150" y="341" text-anchor="middle" font-size="9" fill="white" font-weight="bold">Au-Si Liquid Eutectic</text>
    <text x="1260" y="338" font-size="9" fill="#f57c00" font-weight="bold">363°C</text>
    
    <rect x="1050" y="345" width="200" height="25" fill="#8b7355" stroke="#333" stroke-width="2"/>
    
    <!-- Heat animation -->
    <g class="heat-animation">
      <circle cx="1270" cy="320" r="15" fill="none" stroke="#ff5252" stroke-width="2" stroke-dasharray="2,2" opacity="0.7"/>
      <path d="M 1270,320 Q 1270,328 1273,332 T 1279,340" stroke="#ff5252" stroke-width="2" fill="none"/>
      <path d="M 1285,320 Q 1285,328 1288,332 T 1294,340" stroke="#ff5252" stroke-width="2" fill="none"/>
      <path d="M 1300,320 Q 1300,328 1303,332 T 1309,340" stroke="#ff5252" stroke-width="2" fill="none"/>
    </g>
    
    <!-- After cooling -->
    <text x="970" y="385" font-size="12" fill="#333" font-weight="bold">After Cooling:</text>
    <rect x="1050" y="395" width="200" height="25" fill="#8b7355" stroke="#333" stroke-width="2"/>
    
    <!-- Solid eutectic alloy -->
    <rect x="1050" y="420" width="200" height="10" fill="#d4af37" stroke="#ff6f00" stroke-width="2"/>
    <text x="1150" y="428" text-anchor="middle" font-size="8" fill="white" font-weight="bold">Au-Si Alloy (solid)</text>
    
    <rect x="1050" y="430" width="200" height="25" fill="#8b7355" stroke="#333" stroke-width="2"/>
    
    <!-- Phase diagram inset -->
    <rect x="970" y="460" width="120" height="50" fill="white" stroke="#666" stroke-width="1" rx="2"/>
    <text x="1030" y="475" text-anchor="middle" font-size="8" fill="#333">Au-Si Phase Diagram</text>
    <line x1="980" y1="490" x2="1060" y2="490" stroke="#666" stroke-width="1"/>
    <line x1="980" y1="490" x2="980" y2="505" stroke="#666" stroke-width="1"/>
    <circle cx="1000" cy="495" r="3" fill="#ff6f00"/>
    <text x="1000" y="510" text-anchor="middle" font-size="7" fill="#666">363°C</text>
    <text x="1070" y="500" font-size="7" fill="#666">31% Si</text>
    
    <!-- Process parameters -->
    <rect x="1095" y="460" width="255" height="50" fill="white" stroke="#388e3c" stroke-width="1" rx="4"/>
    <text x="1105" y="475" font-size="11" fill="#333" font-weight="bold">Common Eutectic Systems:</text>
    <text x="1105" y="490" font-size="9" fill="#666">• Au-Si: 363°C (19% Si, 81% Au)</text>
    <text x="1105" y="505" font-size="9" fill="#666">• Au-Sn: 280°C • Al-Ge: 424°C</text>
    
    <!-- Detailed info (hidden by default) -->
    <g id="eutectic-details" opacity="0" style="transition: opacity 0.3s;">
      <rect x="970" y="320" width="380" height="140" fill="white" stroke="#388e3c" rx="4" opacity="0.9"/>
      <text x="980" y="340" font-size="10" fill="#333">• Mechanism: Liquid phase → solid intermetallic</text>
      <text x="980" y="355" font-size="10" fill="#333">• Composition: Au (81%) + Si (19%) at eutectic point</text>
      <text x="980" y="370" font-size="10" fill="#333">• Applications: Hermetic packaging, RF MEMS</text>
      <text x="980" y="385" font-size="10" fill="#333">• Advantages: Electrical contact, fast process</text>
      <text x="980" y="400" font-size="10" fill="#333">• Limitations: CTE mismatch, void formation</text>
    </g>
  </g>
  
  <!-- Comparison Table -->
  <rect x="50" y="510" width="1300" height="280" fill="#f5f5f5" stroke="#333" stroke-width="2" rx="8"/>
  <text x="700" y="540" text-anchor="middle" font-size="20" font-weight="bold" fill="#333">
    Comparison &amp; Selection Guide
  </text>
  
  <!-- Table Headers -->
  <rect x="70" y="560" width="180" height="30" fill="#1976d2" stroke="#333" stroke-width="1"/>
  <text x="160" y="580" text-anchor="middle" font-size="12" fill="white" font-weight="bold">Parameter</text>
  
  <rect x="250" y="560" width="280" height="30" fill="#1976d2" stroke="#333" stroke-width="1"/>
  <text x="390" y="580" text-anchor="middle" font-size="12" fill="white" font-weight="bold">Anodic</text>
  
  <rect x="530" y="560" width="280" height="30" fill="#f57c00" stroke="#333" stroke-width="1"/>
  <text x="670" y="580" text-anchor="middle" font-size="12" fill="white" font-weight="bold">Fusion</text>
  
  <rect x="810" y="560" width="280" height="30" fill="#388e3c" stroke="#333" stroke-width="1"/>
  <text x="950" y="580" text-anchor="middle" font-size="12" fill="white" font-weight="bold">Eutectic</text>
  
  <!-- Row 1: Materials -->
  <rect x="70" y="590" width="180" height="25" fill="#e3f2fd" stroke="#333" stroke-width="1"/>
  <text x="80" y="607" font-size="10" fill="#333" font-weight="bold">Materials</text>
  
  <rect x="250" y="590" width="280" height="25" fill="white" stroke="#333" stroke-width="1"/>
  <text x="260" y="607" font-size="9" fill="#333">Si-Glass (Pyrex, Borofloat)</text>
  
  <rect x="530" y="590" width="280" height="25" fill="white" stroke="#333" stroke-width="1"/>
  <text x="540" y="607" font-size="9" fill="#333">Si-Si, SiO₂-SiO₂, Si-SiO₂</text>
  
  <rect x="810" y="590" width="280" height="25" fill="white" stroke="#333" stroke-width="1"/>
  <text x="820" y="607" font-size="9" fill="#333">Si-Si with metal (Au, Al, Sn)</text>
  
  <!-- Row 2: Temperature -->
  <rect x="70" y="615" width="180" height="25" fill="#e3f2fd" stroke="#333" stroke-width="1"/>
  <text x="80" y="632" font-size="10" fill="#333" font-weight="bold">Temperature</text>
  
  <rect x="250" y="615" width="280" height="25" fill="white" stroke="#333" stroke-width="1"/>
  <text x="260" y="632" font-size="9" fill="#333">300-450°C (moderate)</text>
  
  <rect x="530" y="615" width="280" height="25" fill="white" stroke="#333" stroke-width="1"/>
  <text x="540" y="632" font-size="9" fill="#333">800-1200°C (high)</text>
  
  <rect x="810" y="615" width="280" height="25" fill="white" stroke="#333" stroke-width="1"/>
  <text x="820" y="632" font-size="9" fill="#333">280-424°C (low-moderate)</text>
  
  <!-- Row 3: Voltage -->
  <rect x="70" y="640" width="180" height="25" fill="#e3f2fd" stroke="#333" stroke-width="1"/>
  <text x="80" y="657" font-size="10" fill="#333" font-weight="bold">Voltage Required</text>
  
  <rect x="250" y="640" width="280" height="25" fill="white" stroke="#333" stroke-width="1"/>
  <text x="260" y="657" font-size="9" fill="#333">Yes (200-1000 V DC)</text>
  
  <rect x="530" y="640" width="280" height="25" fill="white" stroke="#333" stroke-width="1"/>
  <text x="540" y="657" font-size="9" fill="#333">No</text>
  
  <rect x="810" y="640" width="280" height="25" fill="white" stroke="#333" stroke-width="1"/>
  <text x="820" y="657" font-size="9" fill="#333">No</text>
  
  <!-- Row 4: Bond Strength with bars -->
  <rect x="70" y="665" width="180" height="25" fill="#e3f2fd" stroke="#333" stroke-width="1"/>
  <text x="80" y="682" font-size="10" fill="#333" font-weight="bold">Bond Strength</text>
  
  <rect x="250" y="665" width="280" height="25" fill="white" stroke="#333" stroke-width="1"/>
  <g transform="translate(260,672)">
    <rect width="100" height="8" fill="#e0e0e0" rx="2"/>
    <rect width="40" height="8" fill="#1976d2" rx="2"/>
    <text x="110" y="6" font-size="8" fill="#333">10-20 MPa</text>
  </g>
  
  <rect x="530" y="665" width="280" height="25" fill="white" stroke="#333" stroke-width="1"/>
  <g transform="translate(540,672)">
    <rect width="100" height="8" fill="#e0e0e0" rx="2"/>
    <rect width="70" height="8" fill="#f57c00" rx="2"/>
    <text x="110" y="6" font-size="8" fill="#333">20-30 MPa</text>
  </g>
  
  <rect x="810" y="665" width="280" height="25" fill="white" stroke="#333" stroke-width="1"/>
  <g transform="translate(820,672)">
    <rect width="100" height="8" fill="#e0e0e0" rx="2"/>
    <rect width="85" height="8" fill="#388e3c" rx="2"/>
    <text x="110" y="6" font-size="8" fill="#333">30-50 MPa</text>
  </g>
  
  <!-- Row 5: Applications -->
  <rect x="70" y="690" width="180" height="40" fill="#e3f2fd" stroke="#333" stroke-width="1"/>
  <text x="80" y="707" font-size="10" fill="#333" font-weight="bold">Typical</text>
  <text x="80" y="722" font-size="10" fill="#333" font-weight="bold">Applications</text>
  
  <rect x="250" y="690" width="280" height="40" fill="white" stroke="#333" stroke-width="1"/>
  <text x="260" y="705" font-size="9" fill="#333">• Pressure sensors</text>
  <text x="260" y="718" font-size="9" fill="#333">• Optical windows</text>
  <text x="260" y="731" font-size="9" fill="#333">• Microfluidics</text>
  
  <rect x="530" y="690" width="280" height="40" fill="white" stroke="#333" stroke-width="1"/>
  <text x="540" y="705" font-size="9" fill="#333">• SOI wafers</text>
  <text x="540" y="718" font-size="9" fill="#333">• 3D-IC stacking</text>
  <text x="540" y="731" font-size="9" fill="#333">• MEMS encapsulation</text>
  
  <rect x="810" y="690" width="280" height="40" fill="white" stroke="#333" stroke-width="1"/>
  <text x="820" y="705" font-size="9" fill="#333">• Hermetic packages</text>
  <text x="820" y="718" font-size="9" fill="#333">• RF MEMS switches</text>
  <text x="820" y="731" font-size="9" fill="#333">• Electrical feedthrough</text>
  
  <!-- Row 6: Advantages -->
  <rect x="70" y="730" width="180" height="40" fill="#e3f2fd" stroke="#333" stroke-width="1"/>
  <text x="80" y="747" font-size="10" fill="#333" font-weight="bold">Key</text>
  <text x="80" y="762" font-size="10" fill="#333" font-weight="bold">Advantage</text>
  
  <rect x="250" y="730" width="280" height="40" fill="#c8e6c9" stroke="#333" stroke-width="1"/>
  <text x="260" y="747" font-size="9" fill="#333">✓ Low temperature</text>
  <text x="260" y="762" font-size="9" fill="#333">✓ Hermetic seal</text>
  
  <rect x="530" y="730" width="280" height="40" fill="#c8e6c9" stroke="#333" stroke-width="1"/>
  <text x="540" y="747" font-size="9" fill="#333">✓ No interlayer</text>
  <text x="540" y="762" font-size="9" fill="#333">✓ Strongest bond</text>
  
  <rect x="810" y="730" width="280" height="40" fill="#c8e6c9" stroke="#333" stroke-width="1"/>
  <text x="820" y="747" font-size="9" fill="#333">✓ Electrical contact</text>
  <text x="820" y="762" font-size="9" fill="#333">✓ Fast process</text>
  
  <!-- Selection Criteria -->
  <rect x="50" y="800" width="640" height="140" fill="#fff9c4" stroke="#f9a825" stroke-width="2" rx="6"/>
  <text x="70" y="825" font-size="14" font-weight="bold" fill="#f57c00">Selection Criteria:</text>
  <text x="70" y="845" font-size="11" fill="#333">1. <text font-weight="bold">Temperature budget:</text> Can devices survive high temp annealing?</text>
  <text x="70" y="863" font-size="11" fill="#333">2. <text font-weight="bold">Material compatibility:</text> Si-Si vs Si-Glass vs Metal interlayer</text>
  <text x="70" y="881" font-size="11" fill="#333">3. <text font-weight="bold">Electrical requirements:</text> Need electrical feedthrough?</text>
  <text x="70" y="899" font-size="11" fill="#333">4. <text font-weight="bold">Hermeticity:</text> Vacuum or inert atmosphere sealing required?</text>
  <text x="70" y="917" font-size="11" fill="#333">5. <text font-weight="bold">Surface roughness:</text> &lt;1 nm for fusion, &lt;10 nm for others</text>
  <text x="70" y="935" font-size="11" fill="#333">6. <text font-weight="bold">Throughput:</text> Anodic fastest, fusion slowest due to annealing</text>
  
  <!-- Process Sequences -->
  <rect x="710" y="800" width="640" height="140" fill="#e8eaf6" stroke="#3f51b5" stroke-width="2" rx="6"/>
  <text x="730" y="825" font-size="14" font-weight="bold" fill="#3f51b5">Typical Process Sequences:</text>
  
  <text x="730" y="850" font-size="11" fill="#333" font-weight="bold">MEMS Pressure Sensor:</text>
  <text x="750" y="867" font-size="10" fill="#666">1. Cavity etch in silicon • 2. Anodic bond to glass lid • 3. Electrode patterning</text>
  
  <text x="730" y="890" font-size="11" fill="#333" font-weight="bold">3D Stacked IC:</text>
  <text x="750" y="907" font-size="10" fill="#666">1. TSV formation • 2. Wafer thinning • 3. Surface activation • 4. Fusion bond • 5. Anneal at 1000°C</text>
  
  <text x="730" y="925" font-size="11" fill="#333" font-weight="bold">RF MEMS Package:</text>
  <text x="750" y="942" font-size="10" fill="#666">1. Au deposition (1 μm) • 2. Align wafers • 3. Eutectic bond at 363°C • 4. Hermetic seal</text>
  
  <!-- Process Timeline -->
  <g transform="translate(50,960)">
    <text x="0" y="0" font-size="12" font-weight="bold" fill="#333">Typical Process Flow:</text>
    
    <!-- Timeline -->
    <line x1="0" y1="15" x2="1300" y2="15" stroke="#ccc" stroke-width="2"/>
    
    <!-- Steps -->
    <g transform="translate(100,20)">
      <circle cx="0" cy="0" r="6" fill="#1976d2"/>
      <text x="0" y="20" text-anchor="middle" font-size="8">Clean</text>
    </g>
    
    <g transform="translate(300,20)">
      <circle cx="0" cy="0" r="6" fill="#f57c00"/>
      <text x="0" y="20" text-anchor="middle" font-size="8">Activate</text>
    </g>
    
    <g transform="translate(500,20)">
      <circle cx="0" cy="0" r="6" fill="#388e3c"/>
      <text x="0" y="20" text-anchor="middle" font-size="8">Align</text>
    </g>
    
    <g transform="translate(700,20)">
      <circle cx="0" cy="0" r="6" fill="#9c27b0"/>
      <text x="0" y="20" text-anchor="middle" font-size="8">Bond</text>
    </g>
    
    <g transform="translate(900,20)">
      <circle cx="0" cy="0" r="6" fill="#ff5722"/>
      <text x="0" y="20" text-anchor="middle" font-size="8">Anneal</text>
    </g>
    
    <g transform="translate(1100,20)">
      <circle cx="0" cy="0" r="6" fill="#607d8b"/>
      <text x="0" y="20" text-anchor="middle" font-size="8">Test</text>
    </g>
  </g>
  
  <!-- Definitions and References -->
  <defs>
    <marker id="arrow" markerWidth="10" markerHeight="10" refX="9" refY="3" orient="auto">
      <polygon points="0 0, 10 3, 0 6" fill="#666"/>
    </marker>
    <marker id="arrow-orange" markerWidth="8" markerHeight="8" refX="7" refY="3" orient="auto">
      <polygon points="0 0, 8 3, 0 6" fill="#ff6f00"/>
    </marker>
  </defs>
  
  <!-- Footer -->
  <rect x="50" y="990" width="1300" height="30" fill="#f5f5f5" stroke="#ddd" stroke-width="1"/>
  <text x="1300" y="1005" text-anchor="end" font-size="9" fill="#666">
    Silicon Fabrication Handbook © 2024 | References: Tong & Gösele (1999), Niklaus et al. (2006)
  </text>
  
</svg>
