<?xml version="1.0" encoding="UTF-8"?>
<svg viewBox="0 0 1400 950" xmlns="http://www.w3.org/2000/svg">
  
  <!-- Title -->
  <text x="700" y="35" text-anchor="middle" font-size="28" font-weight="bold" fill="#1a1a1a">
    Wafer Bonding Technologies
  </text>
  <text x="700" y="60" text-anchor="middle" font-size="14" fill="#666">
    Three Major Bonding Methods for MEMS &amp; 3D Integration
  </text>
  
  <!-- Anodic Bonding -->
  <g id="anodic">
    <rect x="50" y="90" width="400" height="380" fill="#e3f2fd" stroke="#1976d2" stroke-width="3" rx="8"/>
    <text x="250" y="120" text-anchor="middle" font-size="20" font-weight="bold" fill="#1976d2">
      Anodic Bonding
    </text>
    <text x="250" y="140" text-anchor="middle" font-size="12" fill="#666">
      (Silicon-Glass)
    </text>
    
    <!-- Before bonding -->
    <text x="70" y="170" font-size="12" fill="#333" font-weight="bold">Before:</text>
    <rect x="150" y="180" width="200" height="25" fill="#8b7355" stroke="#333" stroke-width="2"/>
    <text x="250" y="197" text-anchor="middle" font-size="10" fill="white">Silicon Wafer</text>
    
    <text x="250" y="220" text-anchor="middle" font-size="18" fill="#999">Gap</text>
    
    <rect x="150" y="235" width="200" height="25" fill="#b0e0e6" stroke="#333" stroke-width="2"/>
    <text x="250" y="252" text-anchor="middle" font-size="10" fill="#333">Glass (Pyrex 7740)</text>
    
    <!-- During bonding -->
    <text x="70" y="285" font-size="12" fill="#333" font-weight="bold">During Bonding:</text>
    
    <!-- Cathode -->
    <rect x="120" y="295" width="40" height="8" fill="#757575" stroke="#333" stroke-width="1"/>
    <text x="140" y="302" text-anchor="middle" font-size="8" fill="white">-</text>
    <line x1="140" y1="303" x2="140" y2="315" stroke="#333" stroke-width="2"/>
    
    <rect x="150" y="315" width="200" height="25" fill="#8b7355" stroke="#333" stroke-width="2"/>
    <text x="250" y="332" text-anchor="middle" font-size="10" fill="white">Si (-)</text>
    
    <!-- Bond interface -->
    <line x1="150" y1="340" x2="350" y2="340" stroke="#ff6f00" stroke-width="3"/>
    
    <rect x="150" y="340" width="200" height="25" fill="#b0e0e6" stroke="#333" stroke-width="2"/>
    <text x="250" y="357" text-anchor="middle" font-size="10" fill="#333">Glass</text>
    
    <!-- Anode with heat -->
    <rect x="120" y="365" width="40" height="8" fill="#757575" stroke="#333" stroke-width="1"/>
    <text x="140" y="372" text-anchor="middle" font-size="8" fill="white">+</text>
    <line x1="140" y1="365" x2="140" y2="353" stroke="#333" stroke-width="2"/>
    
    <!-- Heat waves -->
    <path d="M 370,320 Q 370,328 373,332 T 379,340" stroke="#ff5252" stroke-width="2" fill="none"/>
    <path d="M 385,320 Q 385,328 388,332 T 394,340" stroke="#ff5252" stroke-width="2" fill="none"/>
    <path d="M 400,320 Q 400,328 403,332 T 409,340" stroke="#ff5252" stroke-width="2" fill="none"/>
    
    <!-- Ion migration illustration -->
    <circle cx="220" cy="352" r="3" fill="#ff6f00"/>
    <text x="225" y="356" font-size="8" fill="#ff6f00">Na⁺</text>
    <path d="M 220,352 L 220,345" stroke="#ff6f00" stroke-width="1" marker-end="url(#arrow-orange)"/>
    
    <circle cx="260" cy="352" r="3" fill="#ff6f00"/>
    <text x="265" y="356" font-size="8" fill="#ff6f00">Na⁺</text>
    <path d="M 260,352 L 260,345" stroke="#ff6f00" stroke-width="1" marker-end="url(#arrow-orange)"/>
    
    <circle cx="300" cy="352" r="3" fill="#ff6f00"/>
    <text x="305" y="356" font-size="8" fill="#ff6f00">Na⁺</text>
    <path d="M 300,352 L 300,345" stroke="#ff6f00" stroke-width="1" marker-end="url(#arrow-orange)"/>
    
    <!-- Process parameters -->
    <rect x="60" y="390" width="380" height="70" fill="white" stroke="#1976d2" stroke-width="1" rx="4"/>
    <text x="70" y="410" font-size="11" fill="#333" font-weight="bold">Process Parameters:</text>
    <text x="70" y="427" font-size="10" fill="#666">• Temperature: 300-450°C</text>
    <text x="70" y="442" font-size="10" fill="#666">• Voltage: 200-1000 V</text>
    <text x="70" y="457" font-size="10" fill="#666">• Time: 10-30 minutes</text>
    
    <text x="240" y="427" font-size="10" fill="#666">• Pressure: Contact pressure</text>
    <text x="240" y="442" font-size="10" fill="#666">• Bond strength: 10-20 MPa</text>
    <text x="240" y="457" font-size="10" fill="#666">• Hermetic seal: Yes</text>
  </g>
  
  <!-- Fusion Bonding -->
  <g id="fusion">
    <rect x="500" y="90" width="400" height="380" fill="#fff3e0" stroke="#f57c00" stroke-width="3" rx="8"/>
    <text x="700" y="120" text-anchor="middle" font-size="20" font-weight="bold" fill="#f57c00">
      Fusion Bonding
    </text>
    <text x="700" y="140" text-anchor="middle" font-size="12" fill="#666">
      (Direct Si-Si or SiO₂-SiO₂)
    </text>
    
    <!-- Before bonding -->
    <text x="520" y="170" font-size="12" fill="#333" font-weight="bold">Surface Preparation:</text>
    <rect x="600" y="180" width="200" height="25" fill="#8b7355" stroke="#333" stroke-width="2"/>
    <rect x="600" y="177" width="200" height="3" fill="#64b5f6" stroke="none"/>
    <text x="700" y="197" text-anchor="middle" font-size="10" fill="white">Si + Native Oxide</text>
    
    <!-- Hydrophilic surface -->
    <circle cx="630" cy="215" r="2" fill="#4fc3f7"/>
    <circle cx="650" cy="212" r="2" fill="#4fc3f7"/>
    <circle cx="670" cy="218" r="2" fill="#4fc3f7"/>
    <circle cx="690" cy="214" r="2" fill="#4fc3f7"/>
    <circle cx="710" cy="217" r="2" fill="#4fc3f7"/>
    <circle cx="730" cy="213" r="2" fill="#4fc3f7"/>
    <circle cx="750" cy="216" r="2" fill="#4fc3f7"/>
    <circle cx="770" cy="211" r="2" fill="#4fc3f7"/>
    <text x="700" y="235" text-anchor="middle" font-size="9" fill="#0277bd">OH groups (hydrophilic)</text>
    
    <text x="700" y="255" text-anchor="middle" font-size="14" fill="#999">Contact &amp; Press</text>
    
    <!-- Second wafer -->
    <circle cx="630" cy="270" r="2" fill="#4fc3f7"/>
    <circle cx="650" cy="273" r="2" fill="#4fc3f7"/>
    <circle cx="670" cy="267" r="2" fill="#4fc3f7"/>
    <circle cx="690" cy="271" r="2" fill="#4fc3f7"/>
    <circle cx="710" cy="268" r="2" fill="#4fc3f7"/>
    <circle cx="730" cy="272" r="2" fill="#4fc3f7"/>
    <circle cx="750" cy="269" r="2" fill="#4fc3f7"/>
    <circle cx="770" cy="274" r="2" fill="#4fc3f7"/>
    
    <rect x="600" y="280" width="200" height="3" fill="#64b5f6" stroke="none"/>
    <rect x="600" y="283" width="200" height="25" fill="#8b7355" stroke="#333" stroke-width="2"/>
    <text x="700" y="300" text-anchor="middle" font-size="10" fill="white">Si + Native Oxide</text>
    
    <!-- After annealing -->
    <text x="520" y="330" font-size="12" fill="#333" font-weight="bold">After Annealing:</text>
    <rect x="600" y="340" width="200" height="25" fill="#8b7355" stroke="#333" stroke-width="2"/>
    <text x="700" y="357" text-anchor="middle" font-size="10" fill="white">Silicon</text>
    
    <!-- Strong bond line -->
    <line x1="600" y1="365" x2="800" y2="365" stroke="#4caf50" stroke-width="4"/>
    <text x="820" y="368" font-size="9" fill="#2e7d32" font-weight="bold">Strong</text>
    <text x="820" y="380" font-size="9" fill="#2e7d32" font-weight="bold">Si-O-Si</text>
    
    <rect x="600" y="365" width="200" height="25" fill="#8b7355" stroke="#333" stroke-width="2"/>
    <text x="700" y="382" text-anchor="middle" font-size="10" fill="white">Silicon</text>
    
    <!-- Process parameters -->
    <rect x="510" y="405" width="380" height="55" fill="white" stroke="#f57c00" stroke-width="1" rx="4"/>
    <text x="520" y="425" font-size="11" fill="#333" font-weight="bold">Process Parameters:</text>
    <text x="520" y="442" font-size="10" fill="#666">• Pre-bond: RT, cleanroom</text>
    <text x="520" y="457" font-size="10" fill="#666">• Anneal: 800-1200°C, 1-4 hrs</text>
    
    <text x="700" y="442" font-size="10" fill="#666">• Bond strength: 20-30 MPa</text>
    <text x="700" y="457" font-size="10" fill="#666">• No voltage, no interlayer</text>
  </g>
  
  <!-- Eutectic Bonding -->
  <g id="eutectic">
    <rect x="950" y="90" width="400" height="380" fill="#e8f5e9" stroke="#388e3c" stroke-width="3" rx="8"/>
    <text x="1150" y="120" text-anchor="middle" font-size="20" font-weight="bold" fill="#388e3c">
      Eutectic Bonding
    </text>
    <text x="1150" y="140" text-anchor="middle" font-size="12" fill="#666">
      (Metal Interlayer)
    </text>
    
    <!-- Before bonding -->
    <text x="970" y="170" font-size="12" fill="#333" font-weight="bold">Before:</text>
    <rect x="1050" y="180" width="200" height="25" fill="#8b7355" stroke="#333" stroke-width="2"/>
    <text x="1150" y="197" text-anchor="middle" font-size="10" fill="white">Silicon</text>
    
    <!-- Metal layer -->
    <rect x="1050" y="205" width="200" height="8" fill="#ffd54f" stroke="#f57f17" stroke-width="1"/>
    <text x="1150" y="213" text-anchor="middle" font-size="8" fill="#333">Au (gold)</text>
    
    <text x="1150" y="230" text-anchor="middle" font-size="14" fill="#999">Gap</text>
    
    <!-- Metal layer -->
    <rect x="1050" y="240" width="200" height="8" fill="#ffd54f" stroke="#f57f17" stroke-width="1"/>
    <text x="1150" y="248" text-anchor="middle" font-size="8" fill="#333">Au (gold)</text>
    
    <rect x="1050" y="248" width="200" height="25" fill="#8b7355" stroke="#333" stroke-width="2"/>
    <text x="1150" y="265" text-anchor="middle" font-size="10" fill="white">Silicon</text>
    
    <!-- During bonding (eutectic melt) -->
    <text x="970" y="295" font-size="12" fill="#333" font-weight="bold">During (Heating):</text>
    <rect x="1050" y="305" width="200" height="25" fill="#8b7355" stroke="#333" stroke-width="2"/>
    
    <!-- Liquid eutectic -->
    <rect x="1050" y="330" width="200" height="15" fill="#ffab00" stroke="#ff6f00" stroke-width="2"/>
    <text x="1150" y="341" text-anchor="middle" font-size="9" fill="white" font-weight="bold">Au-Si Liquid</text>
    <text x="1260" y="338" font-size="9" fill="#f57c00">363°C</text>
    
    <rect x="1050" y="345" width="200" height="25" fill="#8b7355" stroke="#333" stroke-width="2"/>
    
    <!-- Heat -->
    <path d="M 1270,320 Q 1270,328 1273,332 T 1279,340" stroke="#ff5252" stroke-width="2" fill="none"/>
    <path d="M 1285,320 Q 1285,328 1288,332 T 1294,340" stroke="#ff5252" stroke-width="2" fill="none"/>
    <path d="M 1300,320 Q 1300,328 1303,332 T 1309,340" stroke="#ff5252" stroke-width="2" fill="none"/>
    
    <!-- After cooling -->
    <text x="970" y="385" font-size="12" fill="#333" font-weight="bold">After (Cooling):</text>
    <rect x="1050" y="395" width="200" height="25" fill="#8b7355" stroke="#333" stroke-width="2"/>
    
    <!-- Solid eutectic -->
    <rect x="1050" y="420" width="200" height="10" fill="#d4af37" stroke="#ff6f00" stroke-width="2"/>
    <text x="1150" y="428" text-anchor="middle" font-size="8" fill="white" font-weight="bold">Au-Si Alloy (solid)</text>
    
    <rect x="1050" y="430" width="200" height="25" fill="#8b7355" stroke="#333" stroke-width="2"/>
    
    <!-- Process parameters -->
    <rect x="960" y="465" width="380" height="5" fill="white" stroke="#388e3c" stroke-width="1" rx="4"/>
    <text x="970" y="445" font-size="11" fill="#333" font-weight="bold">Common Systems:</text>
    <text x="970" y="462" font-size="10" fill="#666">• Au-Si: 363°C (eutectic)</text>
    <text x="970" y="477" font-size="10" fill="#666">• Au-Sn: 280°C</text>
    <text x="970" y="492" font-size="10" fill="#666">• Al-Ge: 424°C</text>
    
    <text x="1140" y="462" font-size="10" fill="#666">• Bond strength: 30-50 MPa</text>
    <text x="1140" y="477" font-size="10" fill="#666">• Hermetic seal: Yes</text>
    <text x="1140" y="492" font-size="10" fill="#666">• Electrical contact: Yes</text>
  </g>
  
  <!-- Comparison Table -->
  <rect x="50" y="500" width="1300" height="270" fill="#f5f5f5" stroke="#333" stroke-width="2" rx="8"/>
  <text x="700" y="530" text-anchor="middle" font-size="20" font-weight="bold" fill="#333">
    Comparison &amp; Selection Guide
  </text>
  
  <!-- Table Headers -->
  <rect x="70" y="550" width="180" height="30" fill="#1976d2" stroke="#333" stroke-width="1"/>
  <text x="160" y="570" text-anchor="middle" font-size="12" fill="white" font-weight="bold">Parameter</text>
  
  <rect x="250" y="550" width="280" height="30" fill="#1976d2" stroke="#333" stroke-width="1"/>
  <text x="390" y="570" text-anchor="middle" font-size="12" fill="white" font-weight="bold">Anodic</text>
  
  <rect x="530" y="550" width="280" height="30" fill="#f57c00" stroke="#333" stroke-width="1"/>
  <text x="670" y="570" text-anchor="middle" font-size="12" fill="white" font-weight="bold">Fusion</text>
  
  <rect x="810" y="550" width="280" height="30" fill="#388e3c" stroke="#333" stroke-width="1"/>
  <text x="950" y="570" text-anchor="middle" font-size="12" fill="white" font-weight="bold">Eutectic</text>
  
  <!-- Row 1: Materials -->
  <rect x="70" y="580" width="180" height="25" fill="#e3f2fd" stroke="#333" stroke-width="1"/>
  <text x="80" y="597" font-size="10" fill="#333" font-weight="bold">Materials</text>
  
  <rect x="250" y="580" width="280" height="25" fill="white" stroke="#333" stroke-width="1"/>
  <text x="260" y="597" font-size="9" fill="#333">Si-Glass (Pyrex)</text>
  
  <rect x="530" y="580" width="280" height="25" fill="white" stroke="#333" stroke-width="1"/>
  <text x="540" y="597" font-size="9" fill="#333">Si-Si, SiO₂-SiO₂, SOI</text>
  
  <rect x="810" y="580" width="280" height="25" fill="white" stroke="#333" stroke-width="1"/>
  <text x="820" y="597" font-size="9" fill="#333">Si-Si, Si-Metal (Au, Al)</text>
  
  <!-- Row 2: Temperature -->
  <rect x="70" y="605" width="180" height="25" fill="#e3f2fd" stroke="#333" stroke-width="1"/>
  <text x="80" y="622" font-size="10" fill="#333" font-weight="bold">Temperature</text>
  
  <rect x="250" y="605" width="280" height="25" fill="white" stroke="#333" stroke-width="1"/>
  <text x="260" y="622" font-size="9" fill="#333">300-450°C (moderate)</text>
  
  <rect x="530" y="605" width="280" height="25" fill="white" stroke="#333" stroke-width="1"/>
  <text x="540" y="622" font-size="9" fill="#333">800-1200°C (high)</text>
  
  <rect x="810" y="605" width="280" height="25" fill="white" stroke="#333" stroke-width="1"/>
  <text x="820" y="622" font-size="9" fill="#333">280-424°C (low-moderate)</text>
  
  <!-- Row 3: Voltage -->
  <rect x="70" y="630" width="180" height="25" fill="#e3f2fd" stroke="#333" stroke-width="1"/>
  <text x="80" y="647" font-size="10" fill="#333" font-weight="bold">Voltage Required</text>
  
  <rect x="250" y="630" width="280" height="25" fill="white" stroke="#333" stroke-width="1"/>
  <text x="260" y="647" font-size="9" fill="#333">Yes (200-1000 V)</text>
  
  <rect x="530" y="630" width="280" height="25" fill="white" stroke="#333" stroke-width="1"/>
  <text x="540" y="647" font-size="9" fill="#333">No</text>
  
  <rect x="810" y="630" width="280" height="25" fill="white" stroke="#333" stroke-width="1"/>
  <text x="820" y="647" font-size="9" fill="#333">No</text>
  
  <!-- Row 4: Bond Strength -->
  <rect x="70" y="655" width="180" height="25" fill="#e3f2fd" stroke="#333" stroke-width="1"/>
  <text x="80" y="672" font-size="10" fill="#333" font-weight="bold">Bond Strength</text>
  
  <rect x="250" y="655" width="280" height="25" fill="white" stroke="#333" stroke-width="1"/>
  <text x="260" y="672" font-size="9" fill="#333">10-20 MPa</text>
  
  <rect x="530" y="655" width="280" height="25" fill="white" stroke="#333" stroke-width="1"/>
  <text x="540" y="672" font-size="9" fill="#333">20-30 MPa (strongest)</text>
  
  <rect x="810" y="655" width="280" height="25" fill="white" stroke="#333" stroke-width="1"/>
  <text x="820" y="672" font-size="9" fill="#333">30-50 MPa</text>
  
  <!-- Row 5: Applications -->
  <rect x="70" y="680" width="180" height="40" fill="#e3f2fd" stroke="#333" stroke-width="1"/>
  <text x="80" y="697" font-size="10" fill="#333" font-weight="bold">Typical</text>
  <text x="80" y="712" font-size="10" fill="#333" font-weight="bold">Applications</text>
  
  <rect x="250" y="680" width="280" height="40" fill="white" stroke="#333" stroke-width="1"/>
  <text x="260" y="695" font-size="9" fill="#333">Pressure sensors</text>
  <text x="260" y="708" font-size="9" fill="#333">Optical windows</text>
  
  <rect x="530" y="680" width="280" height="40" fill="white" stroke="#333" stroke-width="1"/>
  <text x="540" y="695" font-size="9" fill="#333">SOI wafers, 3D-IC</text>
  <text x="540" y="708" font-size="9" fill="#333">High-temp stable</text>
  
  <rect x="810" y="680" width="280" height="40" fill="white" stroke="#333" stroke-width="1"/>
  <text x="820" y="695" font-size="9" fill="#333">Hermetic packages</text>
  <text x="820" y="708" font-size="9" fill="#333">Electrical feedthrough</text>
  
  <!-- Row 6: Advantages -->
  <rect x="70" y="720" width="180" height="40" fill="#e3f2fd" stroke="#333" stroke-width="1"/>
  <text x="80" y="737" font-size="10" fill="#333" font-weight="bold">Key</text>
  <text x="80" y="752" font-size="10" fill="#333" font-weight="bold">Advantage</text>
  
  <rect x="250" y="720" width="280" height="40" fill="#c8e6c9" stroke="#333" stroke-width="1"/>
  <text x="260" y="737" font-size="9" fill="#333">✓ Low temperature</text>
  <text x="260" y="752" font-size="9" fill="#333">✓ Hermetic seal</text>
  
  <rect x="530" y="720" width="280" height="40" fill="#c8e6c9" stroke="#333" stroke-width="1"/>
  <text x="540" y="737" font-size="9" fill="#333">✓ No interlayer</text>
  <text x="540" y="752" font-size="9" fill="#333">✓ Strongest bond</text>
  
  <rect x="810" y="720" width="280" height="40" fill="#c8e6c9" stroke="#333" stroke-width="1"/>
  <text x="820" y="737" font-size="9" fill="#333">✓ Electrical contact</text>
  <text x="820" y="752" font-size="9" fill="#333">✓ Fast process</text>
  
  <!-- Legend & Notes -->
  <rect x="50" y="790" width="640" height="140" fill="#fff9c4" stroke="#f9a825" stroke-width="2" rx="6"/>
  <text x="70" y="815" font-size="14" font-weight="bold" fill="#f57c00">Selection Criteria:</text>
  <text x="70" y="835" font-size="11" fill="#333">1. <text font-weight="bold">Temperature budget:</text> Can devices survive annealing?</text>
  <text x="70" y="853" font-size="11" fill="#333">2. <text font-weight="bold">Material compatibility:</text> Si-Si vs Si-Glass vs Metal</text>
  <text x="70" y="871" font-size="11" fill="#333">3. <text font-weight="bold">Electrical requirements:</text> Need feedthrough?</text>
  <text x="70" y="889" font-size="11" fill="#333">4. <text font-weight="bold">Hermeticity:</text> Vacuum or inert atmosphere sealing?</text>
  <text x="70" y="907" font-size="11" fill="#333">5. <text font-weight="bold">Cost &amp; throughput:</text> Volume production considerations</text>
  <text x="70" y="925" font-size="11" fill="#333">6. <text font-weight="bold">Alignment accuracy:</text> Fusion allows sub-micron alignment</text>
  
  <!-- Process Comparison -->
  <rect x="710" y="790" width="640" height="140" fill="#e8eaf6" stroke="#3f51b5" stroke-width="2" rx="6"/>
  <text x="730" y="815" font-size="14" font-weight="bold" fill="#3f51b5">Common Process Sequences:</text>
  
  <text x="730" y="840" font-size="11" fill="#333" font-weight="bold">MEMS Pressure Sensor:</text>
  <text x="750" y="857" font-size="10" fill="#666">1. Etch cavity in Si • 2. Anodic bond to glass • 3. Pattern electrodes</text>
  
  <text x="730" y="880" font-size="11" fill="#333" font-weight="bold">3D Stacked IC:</text>
  <text x="750" y="897" font-size="10" fill="#666">1. TSV formation • 2. Wafer thinning • 3. Fusion bond • 4. Anneal</text>
  
  <text x="730" y="920" font-size="11" fill="#333" font-weight="bold">Hermetic Package:</text>
  <text x="750" y="937" font-size="10" fill="#666">1. Au deposition • 2. Eutectic bond • 3. Seal at 363°C</text>
  
  <!-- Definitions -->
  <defs>
    <marker id="arrow" markerWidth="10" markerHeight="10" refX="9" refY="3" orient="auto">
      <polygon points="0 0, 10 3, 0 6" fill="#666"/>
    </marker>
    <marker id="arrow-orange" markerWidth="8" markerHeight="8" refX="7" refY="3" orient="auto">
      <polygon points="0 0, 8 3, 0 6" fill="#ff6f00"/>
    </marker>
  </defs>
  
</svg>
